<?xml version="1.0" encoding="iso-8859-1"?>
<!-- Generator: Adobe Illustrator 19.0.0, SVG Export Plug-In . SVG Version: 6.00 Build 0)  -->
<svg version="1.1" id="Layer_1" xmlns="http://www.w3.org/2000/svg" x="0px" y="0px"
	 viewBox="0 0 512.001 512.001" style="enable-background:new 0 0 512.001 512.001;" xml:space="preserve">
<path style="fill:#DBAD75;" d="M19.851,364.491c-7.356,1.537-15.061-2.137-18.337-9.254c-3.807-8.273-0.187-18.066,8.086-21.873
	l29.148-13.414c8.275-3.807,18.066-0.187,21.873,8.086c3.807,8.273,0.187,18.066-8.086,21.873l-29.148,13.414
	C22.231,363.854,21.046,364.241,19.851,364.491z"/>
<path style="fill:#EABD81;" d="M1.514,355.236c-3.807-8.273-0.187-18.066,8.086-21.873l29.148-13.414
	c8.275-3.807,18.066-0.187,21.873,8.086L1.514,355.236z"/>
<path style="fill:#BC2A46;" d="M510.491,213.263L440.42,61c-2.406-5.23-7.367-8.827-13.089-9.487
	c-5.72-0.661-11.369,1.713-14.905,6.256l-28.14,36.174L90.149,200.707c-27.378,9.734-49.553,30.672-60.84,57.448
	c-11.288,26.774-10.794,57.271,1.353,83.667s34.988,46.607,62.667,55.451c17.225,5.503,35.474,6.334,52.854,2.704
	c10.549-2.203,20.778-6.049,30.26-11.492L448.956,234.47l45.78,2.157c5.751,0.274,11.228-2.478,14.447-7.252
	C512.403,224.601,512.897,218.494,510.491,213.263z"/>
<path style="fill:#D62D46;" d="M475.534,137.304L440.42,61c-2.406-5.23-7.367-8.827-13.089-9.487
	c-5.72-0.661-11.369,1.713-14.905,6.256l-28.14,36.174L90.149,200.707c-27.378,9.734-49.553,30.672-60.84,57.448
	c-11.288,26.774-10.794,57.271,1.353,83.667L475.534,137.304z"/>
<path style="fill:#39B7B6;" d="M510.491,213.263L440.42,61c-2.406-5.23-7.367-8.827-13.089-9.487
	c-5.72-0.661-11.369,1.713-14.905,6.256l-28.14,36.174l-9.768,3.545l65.39,142.093l9.047-5.114l45.78,2.157
	c5.751,0.274,11.228-2.478,14.447-7.252C512.403,224.601,512.897,218.494,510.491,213.263z"/>
<path style="fill:#66CBC4;" d="M475.486,137.124L440.42,61c-2.406-5.23-7.367-8.827-13.089-9.487
	c-5.72-0.661-11.369,1.713-14.905,6.256l-28.14,36.174l-9.768,3.545l32.713,71.015L475.486,137.124z"/>

<g>
</g>
<g>
</g>
<g>
</g>
<g>
</g>
<g>
</g>
<g>
</g>
<g>
</g>
<g>
</g>
<g>
</g>
<g>
</g>
<g>
</g>
<g>
</g>
<g>
</g>
<g>
</g>
<g>
</g>
</svg>
